<svg xmlns="http://www.w3.org/2000/svg" xmlns:xlink="http://www.w3.org/1999/xlink" contentStyleType="text/css" data-diagram-type="ACTIVITY" height="3967.1875px" preserveAspectRatio="none" style="width:940px;height:3967px;background:#FFFFFF;" version="1.1" viewBox="0 0 940 3967" width="940.625px" zoomAndPan="magnify"><title>Fluxograma - Linha Cir&#250;rgica da Obesidade (Pr&#233; e P&#243;s-operat&#243;rio)</title><defs/><g><g class="title" data-source-line="11"><text fill="#000000" font-family="sans-serif" font-size="21.875" font-weight="bold" lengthAdjust="spacing" textLength="713.0784" x="111.4624" y="54.6343">Fluxograma - Linha Cir&#250;rgica da Obesidade (Pr&#233; e P&#243;s-operat&#243;rio)</text></g><ellipse cx="470.5969" cy="93.8561" fill="#222222" rx="15.625" ry="15.625" style="stroke:#222222;stroke-width:1.5625;"/><rect fill="#ECF0F1" height="120.6309" rx="19.5313" ry="19.5313" style="stroke:#2C3E50;stroke-width:3.125;" width="345.1113" x="298.0413" y="140.7311"/><text fill="#2C3E50" font-family="sans-serif" font-size="21.875" lengthAdjust="spacing" textLength="313.8613" x="313.6663" y="179.7404">Paciente com obesidade grave</text><text fill="#2C3E50" font-family="sans-serif" font-size="21.875" lengthAdjust="spacing" textLength="313.4238" x="313.6663" y="209.534">eleg&#237;vel ao fluxo pr&#233;-bari&#225;trico</text><text fill="#2C3E50" font-family="sans-serif" font-size="21.875" lengthAdjust="spacing" textLength="202.0805" x="313.6663" y="239.3276">identificado na UAC</text><rect fill="#ECF0F1" height="120.6309" rx="19.5313" ry="19.5313" style="stroke:#2C3E50;stroke-width:3.125;" width="420.0548" x="260.5695" y="292.612"/><text fill="#2C3E50" font-family="sans-serif" font-size="21.875" lengthAdjust="spacing" textLength="358.3331" x="276.1945" y="331.6213">Triagem pr&#233;-bari&#225;trica estruturada</text><text fill="#2C3E50" font-family="sans-serif" font-size="21.875" lengthAdjust="spacing" textLength="388.8048" x="276.1945" y="361.4149">(IMC, comorbidades, crit&#233;rios cl&#237;nicos,</text><text fill="#2C3E50" font-family="sans-serif" font-size="21.875" lengthAdjust="spacing" textLength="247.1866" x="276.1945" y="391.2085">condi&#231;&#245;es psicossociais)</text><polygon fill="#ECF0F1" points="311.8835,444.4928,629.3104,444.4928,648.0604,474.2865,629.3104,504.0801,311.8835,504.0801,293.1335,474.2865,311.8835,444.4928" style="stroke:#2C3E50;stroke-width:3.125;"/><text fill="#2C3E50" font-family="sans-serif" font-size="21.875" lengthAdjust="spacing" textLength="317.4269" x="311.8835" y="467.8771">"Candidato potencial &#224; cirurgia</text><text fill="#2C3E50" font-family="sans-serif" font-size="21.875" lengthAdjust="spacing" textLength="116.4402" x="311.8835" y="497.6707">bari&#225;trica?"</text><text fill="#000000" font-family="sans-serif" font-size="17.1875" lengthAdjust="spacing" textLength="47.1278" x="246.0057" y="469.2506">"N&#227;o"</text><text fill="#000000" font-family="sans-serif" font-size="17.1875" lengthAdjust="spacing" textLength="43.9653" x="648.0604" y="469.2506">"Sim"</text><rect fill="#ECF0F1" height="90.8372" rx="19.5313" ry="19.5313" style="stroke:#2C3E50;stroke-width:3.125;" width="349.0269" x="102.995" y="519.7051"/><text fill="#2C3E50" font-family="sans-serif" font-size="21.875" lengthAdjust="spacing" textLength="317.7769" x="118.62" y="558.7144">Manter gest&#227;o cl&#237;nica intensiva</text><text fill="#2C3E50" font-family="sans-serif" font-size="21.875" lengthAdjust="spacing" textLength="290.7832" x="118.62" y="588.508">na UAC (sem fluxo cir&#250;rgico)</text><rect fill="#ECF0F1" height="90.8372" rx="19.5313" ry="19.5313" style="stroke:#2C3E50;stroke-width:3.125;" width="357.58" x="98.7184" y="641.7923"/><text fill="#2C3E50" font-family="sans-serif" font-size="21.875" lengthAdjust="spacing" textLength="326.33" x="114.3434" y="680.8016">Registrar decis&#227;o no prontu&#225;rio</text><text fill="#2C3E50" font-family="sans-serif" font-size="21.875" lengthAdjust="spacing" textLength="270.0677" x="120.0309" y="710.5952">e no painel de indicadores</text><ellipse cx="277.5085" cy="781.0671" fill="none" rx="17.1875" ry="17.1875" style="stroke:#222222;stroke-width:1.5625;"/><ellipse cx="277.5085" cy="781.0671" fill="#222222" rx="9.375" ry="9.375" style="stroke:#222222;stroke-width:1.5625;"/><rect fill="#ECF0F1" height="90.8372" rx="19.5313" ry="19.5313" style="stroke:#2C3E50;stroke-width:3.125;" width="307.7708" x="509.8" y="519.7051"/><text fill="#2C3E50" font-family="sans-serif" font-size="21.875" lengthAdjust="spacing" textLength="276.5208" x="525.425" y="558.7144">Encaminhar para avalia&#231;&#227;o</text><text fill="#2C3E50" font-family="sans-serif" font-size="21.875" lengthAdjust="spacing" textLength="231.8741" x="525.425" y="588.508">cir&#250;rgica especializada</text><rect fill="#ECF0F1" height="90.8372" rx="19.5313" ry="19.5313" style="stroke:#2C3E50;stroke-width:3.125;" width="433.639" x="253.7774" y="829.5046"/><text fill="#2C3E50" font-family="sans-serif" font-size="21.875" lengthAdjust="spacing" textLength="402.389" x="269.4024" y="868.5138">Agendar consulta com equipe cir&#250;rgica</text><text fill="#2C3E50" font-family="sans-serif" font-size="21.875" lengthAdjust="spacing" textLength="136.0182" x="269.4024" y="898.3075">de refer&#234;ncia</text><polygon fill="#ECF0F1" points="355.6005,951.5918,585.5933,951.5918,604.3433,981.3854,585.5933,1011.179,355.6005,1011.179,336.8505,981.3854,355.6005,951.5918" style="stroke:#2C3E50;stroke-width:3.125;"/><text fill="#2C3E50" font-family="sans-serif" font-size="21.875" lengthAdjust="spacing" textLength="229.9928" x="355.6005" y="974.9761">"Paciente compareceu</text><text fill="#2C3E50" font-family="sans-serif" font-size="21.875" lengthAdjust="spacing" textLength="218.7273" x="355.6005" y="1004.7697">&#224; consulta cir&#250;rgica?"</text><text fill="#000000" font-family="sans-serif" font-size="17.1875" lengthAdjust="spacing" textLength="47.1278" x="289.7227" y="976.3495">"N&#227;o"</text><text fill="#000000" font-family="sans-serif" font-size="17.1875" lengthAdjust="spacing" textLength="43.9653" x="604.3433" y="976.3495">"Sim"</text><rect fill="#ECF0F1" height="90.8372" rx="19.5313" ry="19.5313" style="stroke:#2C3E50;stroke-width:3.125;" width="413.5361" x="63.5842" y="1026.804"/><text fill="#2C3E50" font-family="sans-serif" font-size="21.875" lengthAdjust="spacing" textLength="305.2207" x="79.2092" y="1065.8133">Reagendar consulta e acionar</text><text fill="#2C3E50" font-family="sans-serif" font-size="21.875" lengthAdjust="spacing" textLength="382.2861" x="79.2092" y="1095.6069">estrat&#233;gias de resgate (contato ativo)</text><rect fill="#ECF0F1" height="90.8372" rx="19.5313" ry="19.5313" style="stroke:#2C3E50;stroke-width:3.125;" width="352.0675" x="94.3185" y="1148.8913"/><text fill="#2C3E50" font-family="sans-serif" font-size="21.875" lengthAdjust="spacing" textLength="290.9801" x="109.9435" y="1187.9006">Registrar aus&#234;ncia no painel</text><text fill="#2C3E50" font-family="sans-serif" font-size="21.875" lengthAdjust="spacing" textLength="315.1301" x="115.6309" y="1217.6942">e reavaliar ap&#243;s nova tentativa</text><ellipse cx="270.3522" cy="1288.166" fill="none" rx="17.1875" ry="17.1875" style="stroke:#222222;stroke-width:1.5625;"/><ellipse cx="270.3522" cy="1288.166" fill="#222222" rx="9.375" ry="9.375" style="stroke:#222222;stroke-width:1.5625;"/><rect fill="#ECF0F1" height="90.8372" rx="19.5313" ry="19.5313" style="stroke:#2C3E50;stroke-width:3.125;" width="324.9426" x="508.3703" y="1026.804"/><text fill="#2C3E50" font-family="sans-serif" font-size="21.875" lengthAdjust="spacing" textLength="293.6926" x="523.9953" y="1065.8133">Avalia&#231;&#227;o cir&#250;rgica completa</text><text fill="#2C3E50" font-family="sans-serif" font-size="21.875" lengthAdjust="spacing" textLength="277.2864" x="523.9953" y="1095.6069">+ exames complementares</text><polygon fill="#ECF0F1" points="339.5224,1336.6035,601.6714,1336.6035,620.4214,1366.3971,601.6714,1396.1908,339.5224,1396.1908,320.7724,1366.3971,339.5224,1336.6035" style="stroke:#2C3E50;stroke-width:3.125;"/><text fill="#2C3E50" font-family="sans-serif" font-size="21.875" lengthAdjust="spacing" textLength="203.0211" x="339.5224" y="1359.9878">"Indica&#231;&#227;o cir&#250;rgica</text><text fill="#2C3E50" font-family="sans-serif" font-size="21.875" lengthAdjust="spacing" textLength="262.149" x="339.5224" y="1389.7814">confirmada pela equipe?"</text><text fill="#000000" font-family="sans-serif" font-size="17.1875" lengthAdjust="spacing" textLength="47.1278" x="273.6447" y="1361.3612">"N&#227;o"</text><text fill="#000000" font-family="sans-serif" font-size="17.1875" lengthAdjust="spacing" textLength="43.9653" x="620.4214" y="1361.3612">"Sim"</text><rect fill="#ECF0F1" height="90.8372" rx="19.5313" ry="19.5313" style="stroke:#2C3E50;stroke-width:3.125;" width="350.8425" x="60.7842" y="1411.8158"/><text fill="#2C3E50" font-family="sans-serif" font-size="21.875" lengthAdjust="spacing" textLength="319.5925" x="76.4092" y="1450.825">Retorno para UAC com parecer</text><text fill="#2C3E50" font-family="sans-serif" font-size="21.875" lengthAdjust="spacing" textLength="241.2803" x="76.4092" y="1480.6187">sem indica&#231;&#227;o cir&#250;rgica</text><rect fill="#ECF0F1" height="90.8372" rx="19.5313" ry="19.5313" style="stroke:#2C3E50;stroke-width:3.125;" width="438.036" x="17.1875" y="1533.903"/><text fill="#2C3E50" font-family="sans-serif" font-size="21.875" lengthAdjust="spacing" textLength="330.8144" x="32.8125" y="1572.9123">Ajustar plano terap&#234;utico cl&#237;nico</text><text fill="#2C3E50" font-family="sans-serif" font-size="21.875" lengthAdjust="spacing" textLength="401.0984" x="38.5" y="1602.7059">e manter seguimento multiprofissional</text><rect fill="#ECF0F1" height="90.8372" rx="19.5313" ry="19.5313" style="stroke:#2C3E50;stroke-width:3.125;" width="326.9988" x="72.7061" y="1655.9902"/><text fill="#2C3E50" font-family="sans-serif" font-size="21.875" lengthAdjust="spacing" textLength="278.3583" x="88.3311" y="1694.9995">Registrar decis&#227;o no painel</text><text fill="#2C3E50" font-family="sans-serif" font-size="21.875" lengthAdjust="spacing" textLength="295.7488" x="88.3311" y="1724.7931">(eleg&#237;vel cl&#237;nico sem cirurgia)</text><ellipse cx="236.2055" cy="1795.265" fill="none" rx="17.1875" ry="17.1875" style="stroke:#222222;stroke-width:1.5625;"/><ellipse cx="236.2055" cy="1795.265" fill="#222222" rx="9.375" ry="9.375" style="stroke:#222222;stroke-width:1.5625;"/><rect fill="#ECF0F1" height="90.8372" rx="19.5313" ry="19.5313" style="stroke:#2C3E50;stroke-width:3.125;" width="368.8237" x="520.5765" y="1411.8158"/><text fill="#2C3E50" font-family="sans-serif" font-size="21.875" lengthAdjust="spacing" textLength="337.5737" x="536.2015" y="1450.825">Incluir paciente na fila/regula&#231;&#227;o</text><text fill="#2C3E50" font-family="sans-serif" font-size="21.875" lengthAdjust="spacing" textLength="235.5273" x="536.2015" y="1480.6187">para cirurgia bari&#225;trica</text><rect fill="#ECF0F1" height="90.8372" rx="19.5313" ry="19.5313" style="stroke:#2C3E50;stroke-width:3.125;" width="437.0298" x="486.4735" y="1533.903"/><text fill="#2C3E50" font-family="sans-serif" font-size="21.875" lengthAdjust="spacing" textLength="405.7798" x="502.0985" y="1572.9123">Registrar status: 'Indica&#231;&#227;o confirmada'</text><text fill="#2C3E50" font-family="sans-serif" font-size="21.875" lengthAdjust="spacing" textLength="262.3021" x="502.0985" y="1602.7059">no prontu&#225;rio e no painel</text><rect fill="#ECF0F1" height="150.4245" rx="19.5313" ry="19.5313" style="stroke:#2C3E50;stroke-width:3.125;" width="432.2611" x="254.4664" y="1843.7025"/><text fill="#2C3E50" font-family="sans-serif" font-size="21.875" lengthAdjust="spacing" textLength="401.0111" x="270.0914" y="1882.7118">Prepara&#231;&#227;o pr&#233;-operat&#243;ria estruturada</text><text fill="#2C3E50" font-family="sans-serif" font-size="21.875" lengthAdjust="spacing" textLength="378.2173" x="270.0914" y="1912.5054">(Educa&#231;&#227;o em sa&#250;de, metas de peso,</text><text fill="#2C3E50" font-family="sans-serif" font-size="21.875" lengthAdjust="spacing" textLength="302.0051" x="270.0914" y="1942.299">otimiza&#231;&#227;o de comorbidades,</text><text fill="#2C3E50" font-family="sans-serif" font-size="21.875" lengthAdjust="spacing" textLength="360.6518" x="270.0914" y="1972.0926">apoio psicol&#243;gico e atividade f&#237;sica)</text><polygon fill="#ECF0F1" points="295.2039,2025.377,645.99,2025.377,664.74,2055.1706,645.99,2084.9642,295.2039,2084.9642,276.4539,2055.1706,295.2039,2025.377" style="stroke:#2C3E50;stroke-width:3.125;"/><text fill="#2C3E50" font-family="sans-serif" font-size="21.875" lengthAdjust="spacing" textLength="350.7861" x="295.2039" y="2048.7612">"Condi&#231;&#245;es cl&#237;nicas e psicossociais</text><text fill="#2C3E50" font-family="sans-serif" font-size="21.875" lengthAdjust="spacing" textLength="269.4334" x="295.2039" y="2078.5549">adequadas para cirurgia?"</text><text fill="#000000" font-family="sans-serif" font-size="17.1875" lengthAdjust="spacing" textLength="47.1278" x="229.3261" y="2050.1347">"N&#227;o"</text><text fill="#000000" font-family="sans-serif" font-size="17.1875" lengthAdjust="spacing" textLength="43.9653" x="664.74" y="2050.1347">"Sim"</text><rect fill="#ECF0F1" height="90.8372" rx="19.5313" ry="19.5313" style="stroke:#2C3E50;stroke-width:3.125;" width="313.9177" x="103.87" y="2100.5892"/><text fill="#2C3E50" font-family="sans-serif" font-size="21.875" lengthAdjust="spacing" textLength="269.3021" x="119.495" y="2139.5985">Intensificar manejo cl&#237;nico</text><text fill="#2C3E50" font-family="sans-serif" font-size="21.875" lengthAdjust="spacing" textLength="276.9802" x="125.1825" y="2169.3921">e suporte multiprofissional</text><rect fill="#ECF0F1" height="90.8372" rx="19.5313" ry="19.5313" style="stroke:#2C3E50;stroke-width:3.125;" width="357.7331" x="81.9623" y="2222.6764"/><text fill="#2C3E50" font-family="sans-serif" font-size="21.875" lengthAdjust="spacing" textLength="326.4831" x="97.5873" y="2261.6857">Reavaliar elegibilidade cir&#250;rgica</text><text fill="#2C3E50" font-family="sans-serif" font-size="21.875" lengthAdjust="spacing" textLength="277.4177" x="97.5873" y="2291.4793">ap&#243;s novo ciclo de preparo</text><rect fill="#ECF0F1" height="61.0436" rx="19.5313" ry="19.5313" style="stroke:#2C3E50;stroke-width:3.125;" width="457.5047" x="32.0765" y="2344.7637"/><text fill="#2C3E50" font-family="sans-serif" font-size="21.875" lengthAdjust="spacing" textLength="426.2547" x="47.7015" y="2383.773">-&gt; Prepara&#231;&#227;o pr&#233;-operat&#243;ria estruturada</text><rect fill="#ECF0F1" height="90.8372" rx="19.5313" ry="19.5313" style="stroke:#2C3E50;stroke-width:3.125;" width="307.6396" x="526.5452" y="2100.5892"/><text fill="#2C3E50" font-family="sans-serif" font-size="21.875" lengthAdjust="spacing" textLength="276.3896" x="542.1702" y="2139.5985">Liberar para agendamento</text><text fill="#2C3E50" font-family="sans-serif" font-size="21.875" lengthAdjust="spacing" textLength="192.2586" x="542.1702" y="2169.3921">cir&#250;rgico definitivo</text><polygon fill="#ECF0F1" points="470.5969,2415.1823,489.3469,2433.9323,470.5969,2452.6823,451.8469,2433.9323,470.5969,2415.1823" style="stroke:#2C3E50;stroke-width:3.125;"/><rect fill="#ECF0F1" height="90.8372" rx="19.5313" ry="19.5313" style="stroke:#2C3E50;stroke-width:3.125;" width="359.2206" x="290.9866" y="2483.9323"/><text fill="#2C3E50" font-family="sans-serif" font-size="21.875" lengthAdjust="spacing" textLength="327.9706" x="306.6116" y="2522.9416">Realiza&#231;&#227;o da cirurgia bari&#225;trica</text><text fill="#2C3E50" font-family="sans-serif" font-size="21.875" lengthAdjust="spacing" textLength="246.4865" x="306.6116" y="2552.7352">no servi&#231;o de refer&#234;ncia</text><rect fill="#ECF0F1" height="90.8372" rx="19.5313" ry="19.5313" style="stroke:#2C3E50;stroke-width:3.125;" width="330.6301" x="305.2819" y="2606.0195"/><text fill="#2C3E50" font-family="sans-serif" font-size="21.875" lengthAdjust="spacing" textLength="148.9245" x="320.9069" y="2645.0288">Alta hospitalar</text><text fill="#2C3E50" font-family="sans-serif" font-size="21.875" lengthAdjust="spacing" textLength="299.3801" x="320.9069" y="2674.8224">(sem ou com intercorr&#234;ncias)</text><polygon fill="#ECF0F1" points="320.0647,2728.1068,621.1292,2728.1068,639.8792,2757.9004,621.1292,2787.694,320.0647,2787.694,301.3147,2757.9004,320.0647,2728.1068" style="stroke:#2C3E50;stroke-width:3.125;"/><text fill="#2C3E50" font-family="sans-serif" font-size="21.875" lengthAdjust="spacing" textLength="288.2676" x="320.0647" y="2751.4911">"Complica&#231;&#245;es significativas</text><text fill="#2C3E50" font-family="sans-serif" font-size="21.875" lengthAdjust="spacing" textLength="301.0645" x="320.0647" y="2781.2847">no p&#243;s-operat&#243;rio imediato?"</text><text fill="#000000" font-family="sans-serif" font-size="17.1875" lengthAdjust="spacing" textLength="43.9653" x="257.3494" y="2752.8645">"Sim"</text><text fill="#000000" font-family="sans-serif" font-size="17.1875" lengthAdjust="spacing" textLength="47.1278" x="639.8792" y="2752.8645">"N&#227;o"</text><rect fill="#ECF0F1" height="90.8372" rx="19.5313" ry="19.5313" style="stroke:#2C3E50;stroke-width:3.125;" width="293.924" x="138.7277" y="2803.319"/><text fill="#2C3E50" font-family="sans-serif" font-size="21.875" lengthAdjust="spacing" textLength="262.674" x="154.3527" y="2842.3283">Manejo das complica&#231;&#245;es</text><text fill="#2C3E50" font-family="sans-serif" font-size="21.875" lengthAdjust="spacing" textLength="215.4242" x="154.3527" y="2872.1219">pela equipe cir&#250;rgica</text><rect fill="#ECF0F1" height="90.8372" rx="19.5313" ry="19.5313" style="stroke:#2C3E50;stroke-width:3.125;" width="342.9675" x="114.2059" y="2925.4063"/><text fill="#2C3E50" font-family="sans-serif" font-size="21.875" lengthAdjust="spacing" textLength="279.2552" x="129.8309" y="2964.4155">Planejar reabilita&#231;&#227;o cl&#237;nica</text><text fill="#2C3E50" font-family="sans-serif" font-size="21.875" lengthAdjust="spacing" textLength="306.0301" x="135.5184" y="2994.2092">e acompanhamento intensivo</text><rect fill="#ECF0F1" height="90.8372" rx="19.5313" ry="19.5313" style="stroke:#2C3E50;stroke-width:3.125;" width="329.2302" x="490.8891" y="2803.319"/><text fill="#2C3E50" font-family="sans-serif" font-size="21.875" lengthAdjust="spacing" textLength="297.9802" x="506.5141" y="2842.3283">Manter plano p&#243;s-operat&#243;rio</text><text fill="#2C3E50" font-family="sans-serif" font-size="21.875" lengthAdjust="spacing" textLength="73.7185" x="506.5141" y="2872.1219">padr&#227;o</text><polygon fill="#ECF0F1" points="470.5969,3025.6185,489.3469,3044.3685,470.5969,3063.1185,451.8469,3044.3685,470.5969,3025.6185" style="stroke:#2C3E50;stroke-width:3.125;"/><rect fill="#ECF0F1" height="90.8372" rx="19.5313" ry="19.5313" style="stroke:#2C3E50;stroke-width:3.125;" width="369.8519" x="285.671" y="3094.3685"/><text fill="#2C3E50" font-family="sans-serif" font-size="21.875" lengthAdjust="spacing" textLength="338.6019" x="301.296" y="3133.3778">Retorno programado para a UAC</text><text fill="#2C3E50" font-family="sans-serif" font-size="21.875" lengthAdjust="spacing" textLength="153.5838" x="301.296" y="3163.1714">p&#243;s-operat&#243;rio</text><rect fill="#ECF0F1" height="150.4245" rx="19.5313" ry="19.5313" style="stroke:#2C3E50;stroke-width:3.125;" width="418.3266" x="261.4336" y="3216.4557"/><text fill="#2C3E50" font-family="sans-serif" font-size="21.875" lengthAdjust="spacing" textLength="369.6424" x="277.0586" y="3255.465">Acompanhamento multiprofissional</text><text fill="#2C3E50" font-family="sans-serif" font-size="21.875" lengthAdjust="spacing" textLength="234.5429" x="277.0586" y="3285.2586">p&#243;s-operat&#243;rio na UAC</text><text fill="#2C3E50" font-family="sans-serif" font-size="21.875" lengthAdjust="spacing" textLength="387.0766" x="277.0586" y="3315.0523">(Nutri&#231;&#227;o, Psicologia, Educa&#231;&#227;o F&#237;sica,</text><text fill="#2C3E50" font-family="sans-serif" font-size="21.875" lengthAdjust="spacing" textLength="174.9555" x="277.0586" y="3344.8459">Cl&#237;nica/Medicina)</text><rect fill="#ECF0F1" height="90.8372" rx="19.5313" ry="19.5313" style="stroke:#2C3E50;stroke-width:3.125;" width="346.6863" x="297.2538" y="3398.1302"/><text fill="#2C3E50" font-family="sans-serif" font-size="21.875" lengthAdjust="spacing" textLength="315.4363" x="312.8788" y="3437.1395">Monitorar IMC, comorbidades,</text><text fill="#2C3E50" font-family="sans-serif" font-size="21.875" lengthAdjust="spacing" textLength="312.7457" x="312.8788" y="3466.9331">ades&#227;o e complica&#231;&#245;es tardias</text><rect fill="#ECF0F1" height="120.6309" rx="19.5313" ry="19.5313" style="stroke:#2C3E50;stroke-width:3.125;" width="459.5344" x="240.8297" y="3520.2175"/><text fill="#2C3E50" font-family="sans-serif" font-size="21.875" lengthAdjust="spacing" textLength="315.83" x="256.4547" y="3559.2267">Atualizar painel de indicadores</text><text fill="#2C3E50" font-family="sans-serif" font-size="21.875" lengthAdjust="spacing" textLength="333.8526" x="256.4547" y="3589.0204">(funil: eleg&#237;veis &#8594; encaminhados</text><text fill="#2C3E50" font-family="sans-serif" font-size="21.875" lengthAdjust="spacing" textLength="428.2844" x="256.4547" y="3618.814">&#8594; com indica&#231;&#227;o confirmada &#8594; operados)</text><polygon fill="#ECF0F1" points="315.2522,3672.0983,625.9416,3672.0983,644.6916,3701.8919,625.9416,3731.6856,315.2522,3731.6856,296.5022,3701.8919,315.2522,3672.0983" style="stroke:#2C3E50;stroke-width:3.125;"/><text fill="#2C3E50" font-family="sans-serif" font-size="21.875" lengthAdjust="spacing" textLength="310.6894" x="315.2522" y="3695.4826">"Necessidade de readequa&#231;&#227;o</text><text fill="#2C3E50" font-family="sans-serif" font-size="21.875" lengthAdjust="spacing" textLength="268.1865" x="315.2522" y="3725.2762">do plano p&#243;s-operat&#243;rio?"</text><text fill="#000000" font-family="sans-serif" font-size="17.1875" lengthAdjust="spacing" textLength="43.9653" x="252.5369" y="3696.856">"Sim"</text><text fill="#000000" font-family="sans-serif" font-size="17.1875" lengthAdjust="spacing" textLength="47.1278" x="644.6916" y="3696.856">"N&#227;o"</text><rect fill="#ECF0F1" height="90.8372" rx="19.5313" ry="19.5313" style="stroke:#2C3E50;stroke-width:3.125;" width="336.4488" x="91.431" y="3747.3106"/><text fill="#2C3E50" font-family="sans-serif" font-size="21.875" lengthAdjust="spacing" textLength="233.9741" x="107.056" y="3786.3198">Rever metas, condutas</text><text fill="#2C3E50" font-family="sans-serif" font-size="21.875" lengthAdjust="spacing" textLength="299.5113" x="112.7435" y="3816.1135">e intensidade do seguimento</text><rect fill="#ECF0F1" height="90.8372" rx="19.5313" ry="19.5313" style="stroke:#2C3E50;stroke-width:3.125;" width="444.8172" x="459.1298" y="3747.3106"/><text fill="#2C3E50" font-family="sans-serif" font-size="21.875" lengthAdjust="spacing" textLength="302.2238" x="474.7548" y="3786.3198">Manter seguimento de rotina</text><text fill="#2C3E50" font-family="sans-serif" font-size="21.875" lengthAdjust="spacing" textLength="413.5672" x="474.7548" y="3816.1135">com foco em manuten&#231;&#227;o de resultados</text><polygon fill="#ECF0F1" points="470.5969,3847.5228,489.3469,3866.2728,470.5969,3885.0228,451.8469,3866.2728,470.5969,3847.5228" style="stroke:#2C3E50;stroke-width:3.125;"/><ellipse cx="470.5969" cy="3933.4603" fill="none" rx="17.1875" ry="17.1875" style="stroke:#222222;stroke-width:1.5625;"/><ellipse cx="470.5969" cy="3933.4603" fill="#222222" rx="9.375" ry="9.375" style="stroke:#222222;stroke-width:1.5625;"/><line style="stroke:#2C3E50;stroke-width:3.125;" x1="470.5969" x2="470.5969" y1="109.4811" y2="140.7311"/><polygon fill="#2C3E50" points="464.3469,125.1061,470.5969,140.7311,476.8469,125.1061,470.5969,131.3561" style="stroke:#2C3E50;stroke-width:1.5625;"/><line style="stroke:#2C3E50;stroke-width:3.125;" x1="470.5969" x2="470.5969" y1="261.362" y2="292.612"/><polygon fill="#2C3E50" points="464.3469,276.987,470.5969,292.612,476.8469,276.987,470.5969,283.237" style="stroke:#2C3E50;stroke-width:1.5625;"/><line style="stroke:#2C3E50;stroke-width:3.125;" x1="277.5085" x2="277.5085" y1="610.5423" y2="641.7923"/><polygon fill="#2C3E50" points="271.2585,626.1673,277.5085,641.7923,283.7585,626.1673,277.5085,632.4173" style="stroke:#2C3E50;stroke-width:1.5625;"/><line style="stroke:#2C3E50;stroke-width:3.125;" x1="277.5085" x2="277.5085" y1="732.6296" y2="763.8796"/><polygon fill="#2C3E50" points="271.2585,748.2546,277.5085,763.8796,283.7585,748.2546,277.5085,754.5046" style="stroke:#2C3E50;stroke-width:1.5625;"/><line style="stroke:#2C3E50;stroke-width:3.125;" x1="293.1335" x2="277.5085" y1="474.2865" y2="474.2865"/><line style="stroke:#2C3E50;stroke-width:3.125;" x1="277.5085" x2="277.5085" y1="474.2865" y2="519.7051"/><polygon fill="#2C3E50" points="271.2585,504.0801,277.5085,519.7051,283.7585,504.0801,277.5085,510.3301" style="stroke:#2C3E50;stroke-width:1.5625;"/><line style="stroke:#2C3E50;stroke-width:3.125;" x1="648.0604" x2="663.6854" y1="474.2865" y2="474.2865"/><line style="stroke:#2C3E50;stroke-width:3.125;" x1="663.6854" x2="663.6854" y1="474.2865" y2="519.7051"/><polygon fill="#2C3E50" points="657.4354,504.0801,663.6854,519.7051,669.9354,504.0801,663.6854,510.3301" style="stroke:#2C3E50;stroke-width:1.5625;"/><line style="stroke:#2C3E50;stroke-width:3.125;" x1="663.6854" x2="663.6854" y1="610.5423" y2="806.0671"/><line style="stroke:#2C3E50;stroke-width:3.125;" x1="663.6854" x2="470.5969" y1="806.0671" y2="806.0671"/><line style="stroke:#2C3E50;stroke-width:3.125;" x1="470.5969" x2="470.5969" y1="806.0671" y2="829.5046"/><polygon fill="#2C3E50" points="464.3469,813.8796,470.5969,829.5046,476.8469,813.8796,470.5969,820.1296" style="stroke:#2C3E50;stroke-width:1.5625;"/><line style="stroke:#2C3E50;stroke-width:3.125;" x1="470.5969" x2="470.5969" y1="413.2428" y2="444.4928"/><polygon fill="#2C3E50" points="464.3469,428.8678,470.5969,444.4928,476.8469,428.8678,470.5969,435.1178" style="stroke:#2C3E50;stroke-width:1.5625;"/><line style="stroke:#2C3E50;stroke-width:3.125;" x1="270.3522" x2="270.3522" y1="1117.6413" y2="1148.8913"/><polygon fill="#2C3E50" points="264.1022,1133.2663,270.3522,1148.8913,276.6022,1133.2663,270.3522,1139.5163" style="stroke:#2C3E50;stroke-width:1.5625;"/><line style="stroke:#2C3E50;stroke-width:3.125;" x1="270.3522" x2="270.3522" y1="1239.7285" y2="1270.9785"/><polygon fill="#2C3E50" points="264.1022,1255.3535,270.3522,1270.9785,276.6022,1255.3535,270.3522,1261.6035" style="stroke:#2C3E50;stroke-width:1.5625;"/><line style="stroke:#2C3E50;stroke-width:3.125;" x1="336.8505" x2="270.3522" y1="981.3854" y2="981.3854"/><line style="stroke:#2C3E50;stroke-width:3.125;" x1="270.3522" x2="270.3522" y1="981.3854" y2="1026.804"/><polygon fill="#2C3E50" points="264.1022,1011.179,270.3522,1026.804,276.6022,1011.179,270.3522,1017.429" style="stroke:#2C3E50;stroke-width:1.5625;"/><line style="stroke:#2C3E50;stroke-width:3.125;" x1="604.3433" x2="670.8416" y1="981.3854" y2="981.3854"/><line style="stroke:#2C3E50;stroke-width:3.125;" x1="670.8416" x2="670.8416" y1="981.3854" y2="1026.804"/><polygon fill="#2C3E50" points="664.5916,1011.179,670.8416,1026.804,677.0916,1011.179,670.8416,1017.429" style="stroke:#2C3E50;stroke-width:1.5625;"/><line style="stroke:#2C3E50;stroke-width:3.125;" x1="670.8416" x2="670.8416" y1="1117.6413" y2="1313.166"/><line style="stroke:#2C3E50;stroke-width:3.125;" x1="670.8416" x2="470.5969" y1="1313.166" y2="1313.166"/><line style="stroke:#2C3E50;stroke-width:3.125;" x1="470.5969" x2="470.5969" y1="1313.166" y2="1336.6035"/><polygon fill="#2C3E50" points="464.3469,1320.9785,470.5969,1336.6035,476.8469,1320.9785,470.5969,1327.2285" style="stroke:#2C3E50;stroke-width:1.5625;"/><line style="stroke:#2C3E50;stroke-width:3.125;" x1="470.5969" x2="470.5969" y1="920.3418" y2="951.5918"/><polygon fill="#2C3E50" points="464.3469,935.9668,470.5969,951.5918,476.8469,935.9668,470.5969,942.2168" style="stroke:#2C3E50;stroke-width:1.5625;"/><line style="stroke:#2C3E50;stroke-width:3.125;" x1="236.2055" x2="236.2055" y1="1502.653" y2="1533.903"/><polygon fill="#2C3E50" points="229.9555,1518.278,236.2055,1533.903,242.4555,1518.278,236.2055,1524.528" style="stroke:#2C3E50;stroke-width:1.5625;"/><line style="stroke:#2C3E50;stroke-width:3.125;" x1="236.2055" x2="236.2055" y1="1624.7402" y2="1655.9902"/><polygon fill="#2C3E50" points="229.9555,1640.3652,236.2055,1655.9902,242.4555,1640.3652,236.2055,1646.6152" style="stroke:#2C3E50;stroke-width:1.5625;"/><line style="stroke:#2C3E50;stroke-width:3.125;" x1="236.2055" x2="236.2055" y1="1746.8275" y2="1778.0775"/><polygon fill="#2C3E50" points="229.9555,1762.4525,236.2055,1778.0775,242.4555,1762.4525,236.2055,1768.7025" style="stroke:#2C3E50;stroke-width:1.5625;"/><line style="stroke:#2C3E50;stroke-width:3.125;" x1="704.9884" x2="704.9884" y1="1502.653" y2="1533.903"/><polygon fill="#2C3E50" points="698.7384,1518.278,704.9884,1533.903,711.2384,1518.278,704.9884,1524.528" style="stroke:#2C3E50;stroke-width:1.5625;"/><line style="stroke:#2C3E50;stroke-width:3.125;" x1="320.7724" x2="236.2055" y1="1366.3971" y2="1366.3971"/><line style="stroke:#2C3E50;stroke-width:3.125;" x1="236.2055" x2="236.2055" y1="1366.3971" y2="1411.8158"/><polygon fill="#2C3E50" points="229.9555,1396.1908,236.2055,1411.8158,242.4555,1396.1908,236.2055,1402.4408" style="stroke:#2C3E50;stroke-width:1.5625;"/><line style="stroke:#2C3E50;stroke-width:3.125;" x1="620.4214" x2="704.9884" y1="1366.3971" y2="1366.3971"/><line style="stroke:#2C3E50;stroke-width:3.125;" x1="704.9884" x2="704.9884" y1="1366.3971" y2="1411.8158"/><polygon fill="#2C3E50" points="698.7384,1396.1908,704.9884,1411.8158,711.2384,1396.1908,704.9884,1402.4408" style="stroke:#2C3E50;stroke-width:1.5625;"/><line style="stroke:#2C3E50;stroke-width:3.125;" x1="704.9884" x2="704.9884" y1="1624.7402" y2="1820.265"/><line style="stroke:#2C3E50;stroke-width:3.125;" x1="704.9884" x2="470.5969" y1="1820.265" y2="1820.265"/><line style="stroke:#2C3E50;stroke-width:3.125;" x1="470.5969" x2="470.5969" y1="1820.265" y2="1843.7025"/><polygon fill="#2C3E50" points="464.3469,1828.0775,470.5969,1843.7025,476.8469,1828.0775,470.5969,1834.3275" style="stroke:#2C3E50;stroke-width:1.5625;"/><line style="stroke:#2C3E50;stroke-width:3.125;" x1="260.8289" x2="260.8289" y1="2191.4264" y2="2222.6764"/><polygon fill="#2C3E50" points="254.5789,2207.0514,260.8289,2222.6764,267.0789,2207.0514,260.8289,2213.3014" style="stroke:#2C3E50;stroke-width:1.5625;"/><line style="stroke:#2C3E50;stroke-width:3.125;" x1="260.8289" x2="260.8289" y1="2313.5137" y2="2344.7637"/><polygon fill="#2C3E50" points="254.5789,2329.1387,260.8289,2344.7637,267.0789,2329.1387,260.8289,2335.3887" style="stroke:#2C3E50;stroke-width:1.5625;"/><line style="stroke:#2C3E50;stroke-width:3.125;" x1="276.4539" x2="260.8289" y1="2055.1706" y2="2055.1706"/><line style="stroke:#2C3E50;stroke-width:3.125;" x1="260.8289" x2="260.8289" y1="2055.1706" y2="2100.5892"/><polygon fill="#2C3E50" points="254.5789,2084.9642,260.8289,2100.5892,267.0789,2084.9642,260.8289,2091.2142" style="stroke:#2C3E50;stroke-width:1.5625;"/><line style="stroke:#2C3E50;stroke-width:3.125;" x1="664.74" x2="680.365" y1="2055.1706" y2="2055.1706"/><line style="stroke:#2C3E50;stroke-width:3.125;" x1="680.365" x2="680.365" y1="2055.1706" y2="2100.5892"/><polygon fill="#2C3E50" points="674.115,2084.9642,680.365,2100.5892,686.615,2084.9642,680.365,2091.2142" style="stroke:#2C3E50;stroke-width:1.5625;"/><line style="stroke:#2C3E50;stroke-width:3.125;" x1="260.8289" x2="260.8289" y1="2405.8073" y2="2433.9323"/><line style="stroke:#2C3E50;stroke-width:3.125;" x1="260.8289" x2="451.8469" y1="2433.9323" y2="2433.9323"/><polygon fill="#2C3E50" points="436.2219,2427.6823,451.8469,2433.9323,436.2219,2440.1823,442.4719,2433.9323" style="stroke:#2C3E50;stroke-width:1.5625;"/><line style="stroke:#2C3E50;stroke-width:3.125;" x1="680.365" x2="680.365" y1="2191.4264" y2="2433.9323"/><line style="stroke:#2C3E50;stroke-width:3.125;" x1="680.365" x2="489.3469" y1="2433.9323" y2="2433.9323"/><polygon fill="#2C3E50" points="504.9719,2427.6823,489.3469,2433.9323,504.9719,2440.1823,498.7219,2433.9323" style="stroke:#2C3E50;stroke-width:1.5625;"/><line style="stroke:#2C3E50;stroke-width:3.125;" x1="470.5969" x2="470.5969" y1="1994.127" y2="2025.377"/><polygon fill="#2C3E50" points="464.3469,2009.752,470.5969,2025.377,476.8469,2009.752,470.5969,2016.002" style="stroke:#2C3E50;stroke-width:1.5625;"/><line style="stroke:#2C3E50;stroke-width:3.125;" x1="470.5969" x2="470.5969" y1="2452.6823" y2="2483.9323"/><polygon fill="#2C3E50" points="464.3469,2468.3073,470.5969,2483.9323,476.8469,2468.3073,470.5969,2474.5573" style="stroke:#2C3E50;stroke-width:1.5625;"/><line style="stroke:#2C3E50;stroke-width:3.125;" x1="470.5969" x2="470.5969" y1="2574.7695" y2="2606.0195"/><polygon fill="#2C3E50" points="464.3469,2590.3945,470.5969,2606.0195,476.8469,2590.3945,470.5969,2596.6445" style="stroke:#2C3E50;stroke-width:1.5625;"/><line style="stroke:#2C3E50;stroke-width:3.125;" x1="285.6897" x2="285.6897" y1="2894.1563" y2="2925.4063"/><polygon fill="#2C3E50" points="279.4397,2909.7813,285.6897,2925.4063,291.9397,2909.7813,285.6897,2916.0313" style="stroke:#2C3E50;stroke-width:1.5625;"/><line style="stroke:#2C3E50;stroke-width:3.125;" x1="301.3147" x2="285.6897" y1="2757.9004" y2="2757.9004"/><line style="stroke:#2C3E50;stroke-width:3.125;" x1="285.6897" x2="285.6897" y1="2757.9004" y2="2803.319"/><polygon fill="#2C3E50" points="279.4397,2787.694,285.6897,2803.319,291.9397,2787.694,285.6897,2793.944" style="stroke:#2C3E50;stroke-width:1.5625;"/><line style="stroke:#2C3E50;stroke-width:3.125;" x1="639.8792" x2="655.5042" y1="2757.9004" y2="2757.9004"/><line style="stroke:#2C3E50;stroke-width:3.125;" x1="655.5042" x2="655.5042" y1="2757.9004" y2="2803.319"/><polygon fill="#2C3E50" points="649.2542,2787.694,655.5042,2803.319,661.7542,2787.694,655.5042,2793.944" style="stroke:#2C3E50;stroke-width:1.5625;"/><line style="stroke:#2C3E50;stroke-width:3.125;" x1="285.6897" x2="285.6897" y1="3016.2435" y2="3044.3685"/><line style="stroke:#2C3E50;stroke-width:3.125;" x1="285.6897" x2="451.8469" y1="3044.3685" y2="3044.3685"/><polygon fill="#2C3E50" points="436.2219,3038.1185,451.8469,3044.3685,436.2219,3050.6185,442.4719,3044.3685" style="stroke:#2C3E50;stroke-width:1.5625;"/><line style="stroke:#2C3E50;stroke-width:3.125;" x1="655.5042" x2="655.5042" y1="2894.1563" y2="3044.3685"/><line style="stroke:#2C3E50;stroke-width:3.125;" x1="655.5042" x2="489.3469" y1="3044.3685" y2="3044.3685"/><polygon fill="#2C3E50" points="504.9719,3038.1185,489.3469,3044.3685,504.9719,3050.6185,498.7219,3044.3685" style="stroke:#2C3E50;stroke-width:1.5625;"/><line style="stroke:#2C3E50;stroke-width:3.125;" x1="470.5969" x2="470.5969" y1="2696.8568" y2="2728.1068"/><polygon fill="#2C3E50" points="464.3469,2712.4818,470.5969,2728.1068,476.8469,2712.4818,470.5969,2718.7318" style="stroke:#2C3E50;stroke-width:1.5625;"/><line style="stroke:#2C3E50;stroke-width:3.125;" x1="470.5969" x2="470.5969" y1="3063.1185" y2="3094.3685"/><polygon fill="#2C3E50" points="464.3469,3078.7435,470.5969,3094.3685,476.8469,3078.7435,470.5969,3084.9935" style="stroke:#2C3E50;stroke-width:1.5625;"/><line style="stroke:#2C3E50;stroke-width:3.125;" x1="470.5969" x2="470.5969" y1="3185.2057" y2="3216.4557"/><polygon fill="#2C3E50" points="464.3469,3200.8307,470.5969,3216.4557,476.8469,3200.8307,470.5969,3207.0807" style="stroke:#2C3E50;stroke-width:1.5625;"/><line style="stroke:#2C3E50;stroke-width:3.125;" x1="470.5969" x2="470.5969" y1="3366.8802" y2="3398.1302"/><polygon fill="#2C3E50" points="464.3469,3382.5052,470.5969,3398.1302,476.8469,3382.5052,470.5969,3388.7552" style="stroke:#2C3E50;stroke-width:1.5625;"/><line style="stroke:#2C3E50;stroke-width:3.125;" x1="470.5969" x2="470.5969" y1="3488.9675" y2="3520.2175"/><polygon fill="#2C3E50" points="464.3469,3504.5925,470.5969,3520.2175,476.8469,3504.5925,470.5969,3510.8425" style="stroke:#2C3E50;stroke-width:1.5625;"/><line style="stroke:#2C3E50;stroke-width:3.125;" x1="296.5022" x2="259.6554" y1="3701.8919" y2="3701.8919"/><line style="stroke:#2C3E50;stroke-width:3.125;" x1="259.6554" x2="259.6554" y1="3701.8919" y2="3747.3106"/><polygon fill="#2C3E50" points="253.4054,3731.6856,259.6554,3747.3106,265.9054,3731.6856,259.6554,3737.9356" style="stroke:#2C3E50;stroke-width:1.5625;"/><line style="stroke:#2C3E50;stroke-width:3.125;" x1="644.6916" x2="681.5384" y1="3701.8919" y2="3701.8919"/><line style="stroke:#2C3E50;stroke-width:3.125;" x1="681.5384" x2="681.5384" y1="3701.8919" y2="3747.3106"/><polygon fill="#2C3E50" points="675.2884,3731.6856,681.5384,3747.3106,687.7884,3731.6856,681.5384,3737.9356" style="stroke:#2C3E50;stroke-width:1.5625;"/><line style="stroke:#2C3E50;stroke-width:3.125;" x1="259.6554" x2="259.6554" y1="3838.1478" y2="3866.2728"/><line style="stroke:#2C3E50;stroke-width:3.125;" x1="259.6554" x2="451.8469" y1="3866.2728" y2="3866.2728"/><polygon fill="#2C3E50" points="436.2219,3860.0228,451.8469,3866.2728,436.2219,3872.5228,442.4719,3866.2728" style="stroke:#2C3E50;stroke-width:1.5625;"/><line style="stroke:#2C3E50;stroke-width:3.125;" x1="681.5384" x2="681.5384" y1="3838.1478" y2="3866.2728"/><line style="stroke:#2C3E50;stroke-width:3.125;" x1="681.5384" x2="489.3469" y1="3866.2728" y2="3866.2728"/><polygon fill="#2C3E50" points="504.9719,3860.0228,489.3469,3866.2728,504.9719,3872.5228,498.7219,3866.2728" style="stroke:#2C3E50;stroke-width:1.5625;"/><line style="stroke:#2C3E50;stroke-width:3.125;" x1="470.5969" x2="470.5969" y1="3640.8483" y2="3672.0983"/><polygon fill="#2C3E50" points="464.3469,3656.4733,470.5969,3672.0983,476.8469,3656.4733,470.5969,3662.7233" style="stroke:#2C3E50;stroke-width:1.5625;"/><line style="stroke:#2C3E50;stroke-width:3.125;" x1="470.5969" x2="470.5969" y1="3885.0228" y2="3916.2728"/><polygon fill="#2C3E50" points="464.3469,3900.6478,470.5969,3916.2728,476.8469,3900.6478,470.5969,3906.8978" style="stroke:#2C3E50;stroke-width:1.5625;"/><!--SRC=[ZLRDRjj64BxhAGRk8JPg8t7QNXoWXIlOW87O5PpqfikQ7CaJKxlixb9Dym1zW3v1WnoA1F39w2LNlacVfDyiIOcYvAO-oUJi_7pVDzyot8ajZJSBkZ7PtToxokPZLpXFNvsdlr5OHUIbqF5tptfFJhrtlxRXpyVVd6s-pA8i9Vxse_Cv-oz63SkVZS-VdH_lY3ntDdufcyQyadTCnzyEstrzAzcTvH3e-QFDzcD6KMB1T5vKRzqSeOQEwANOMqDZyVLdFvVCK6xefniEafkSQN_Ywu_4DAaVmf4hsPjOFtXn1wDHYCR7qUXaOZ9X6vaojo2tEedyIvvQBdXUto-v8EDefeMfHCgZ6-EbVX-zP6vg9KS2cQ5wxiWQ-lbq_0APNtinSruC3nZY47qLAszoCxNx5vVZGotk_4qg7V2VbrX_H9-1igA-jwWI3gSsSpQN-g_wRmvK1dqON2P6mW7AoOpszyO64Rc9wD95jdXPKFqdPU8he8DglJP-s3kWUCiMnwxg3sxlO4HqSca0XQSvMiIphheXmMCRP8aKpO2q7p1QWqZMeU_G299Syrmmel6KSoP14rd53KgewlSOQsh1YJuo0eGHXVnvWizpq1GXkdB4HG23UwzaqVHsPZEpKBezgLB8B4qX1dXyGC9ihG0E9UlayWu0lnWnKiz0n-aSlt0MA8QgY2OHphzKKl9w0io7RZpFsDUV5ByEsRvCK9qphgPMeLrbMwNO2Umrcs5z9kHqrdZ8JE42vU0eK6eWp0sAxICuAfq6Ex65hgb2q-GQouIivmOQH9GGFjuk3O6_g5dCe_YUhl7iJPC6BZW2cQ-9tve5nDSyMcZ6H5WBSGBg8Z4vp9B4EnE_02LKSc5Qv1_1AZgVHlADrfIf1dHWfRgJdKKIFATlAbrjAWk3510pCFXKHOXpjKi9f4MZzC3pIdGIHmkm8b3fJ49GNeh_4dEBzlxQ8Bhif0rs6tVmADeNDYigKIctmi9UpQGmJpqwAZfP9mYwPDJRta5l63bMuOIURC2_Wlm9rdPZ0_lxjrwHYMSjs9nEjhNspA5jdULLLmVp1bD_plcG5X1AKd39mS6oN9G5zh29otdJvwRMb0wz92yhwWTr4DqAzVzamhFw7g_Csjvw1jXPKy293JD4rXpYGfU1Dk3RgRMBnjZKlBrgWjyCT1AgqddGyvWwkbLJ8SYD54tdVUMlbb2rcXK9Xp8XxJJ7qT7tzB-1tvBHIxbXltB4P359pJr7r88piQ8MikOQdHThPdQBBAaci5y2T4TRndXogZPswq8fqHJgO-bIS5LQMBqoVEPy6z-xfDGz6f4gaK7cDk6lvXGQeGwkQyA6vW8Vx56uGk2o8KtfpZOoOtlMHZEqYKcXnm0Sp59PYztEjB9At9jazhXn6eFeBa55iQ5Xw-9iN6VOl-vnxX7RXx_rEDzyokIjtIN3G_mWGq9xivijGMwVQZz6mCjL1KBJX8SqIUlcmFKXzRRul5asREMunU3f9L3FnAO5FBbqa91JhMr_iQITIzx80n88NWpgGXeWLabpVlV5ZpPdbPNYX3fJbK3__Fu7SNVnvmv1-gJHrowdImSI10XUIUuALqTel-oIZ1kBQ4rMiT_9sowvNVCIF2UVKn1iNaLLBN4dZwQ8wzqiZykbT_jeMt1BcwvAV5cvB1ahBAb2sfM10YVzUC1mAotfzV8l]--></g></svg>