<svg xmlns="http://www.w3.org/2000/svg" xmlns:xlink="http://www.w3.org/1999/xlink" contentStyleType="text/css" data-diagram-type="ACTIVITY" height="2887.5px" preserveAspectRatio="none" style="width:1725px;height:2887px;background:#FFFFFF;" version="1.1" viewBox="0 0 1725 2887" width="1725px" zoomAndPan="magnify"><title>Fluxograma - Manejo da Obesidade na UAC (Cl&#237;nico e Cir&#250;rgico)</title><defs/><g><g class="title" data-source-line="11"><text fill="#000000" font-family="sans-serif" font-size="21.875" font-weight="bold" lengthAdjust="spacing" textLength="687.288" x="516.7619" y="54.6343">Fluxograma - Manejo da Obesidade na UAC (Cl&#237;nico e Cir&#250;rgico)</text></g><ellipse cx="598.5677" cy="93.8561" fill="#222222" rx="15.625" ry="15.625" style="stroke:#222222;stroke-width:1.5625;"/><rect fill="#ECF0F1" height="150.4245" rx="19.5313" ry="19.5313" style="stroke:#2C3E50;stroke-width:3.125;" width="479.6858" x="358.7247" y="140.7311"/><text fill="#2C3E50" font-family="sans-serif" font-size="21.875" lengthAdjust="spacing" textLength="448.4358" x="374.3497" y="179.7404">Capta&#231;&#227;o ativa de pacientes com obesidade</text><text fill="#2C3E50" font-family="sans-serif" font-size="21.875" lengthAdjust="spacing" textLength="188.3649" x="374.3497" y="209.534">moderada a grave</text><text fill="#2C3E50" font-family="sans-serif" font-size="21.875" lengthAdjust="spacing" textLength="358.3112" x="374.3497" y="239.3276">(Listas de exames, listas de espera,</text><text fill="#2C3E50" font-family="sans-serif" font-size="21.875" lengthAdjust="spacing" textLength="166.1181" x="374.3497" y="269.1213">hist&#243;rico cl&#237;nico)</text><rect fill="#ECF0F1" height="120.6309" rx="19.5313" ry="19.5313" style="stroke:#2C3E50;stroke-width:3.125;" width="482.8576" x="357.1389" y="322.4056"/><text fill="#2C3E50" font-family="sans-serif" font-size="21.875" lengthAdjust="spacing" textLength="451.6076" x="372.7639" y="361.4149">Verificar crit&#233;rios de inclus&#227;o e elegibilidade</text><text fill="#2C3E50" font-family="sans-serif" font-size="21.875" lengthAdjust="spacing" textLength="273.806" x="372.7639" y="391.2085">(IMC &#8805; 35 + comorbidades</text><text fill="#2C3E50" font-family="sans-serif" font-size="21.875" lengthAdjust="spacing" textLength="134.8128" x="372.7639" y="421.0021">ou IMC &#8805; 40)</text><polygon fill="#ECF0F1" points="408.6606,474.2865,788.4747,474.2865,807.2247,493.0365,788.4747,511.7865,408.6606,511.7865,389.9106,493.0365,408.6606,474.2865" style="stroke:#2C3E50;stroke-width:3.125;"/><text fill="#2C3E50" font-family="sans-serif" font-size="21.875" lengthAdjust="spacing" textLength="379.8142" x="408.6606" y="501.5239">"Paciente eleg&#237;vel para o programa?"</text><text fill="#000000" font-family="sans-serif" font-size="17.1875" lengthAdjust="spacing" textLength="47.1278" x="342.7828" y="488.0006">"N&#227;o"</text><text fill="#000000" font-family="sans-serif" font-size="17.1875" lengthAdjust="spacing" textLength="43.9653" x="807.2247" y="488.0006">"Sim"</text><rect fill="#ECF0F1" height="90.8372" rx="19.5313" ry="19.5313" style="stroke:#2C3E50;stroke-width:3.125;" width="218.6524" x="110.3856" y="527.4115"/><text fill="#2C3E50" font-family="sans-serif" font-size="21.875" lengthAdjust="spacing" textLength="187.4024" x="126.0106" y="566.4207">Registrar paciente</text><text fill="#2C3E50" font-family="sans-serif" font-size="21.875" lengthAdjust="spacing" textLength="158.5057" x="126.0106" y="596.2144">em rotina geral</text><rect fill="#ECF0F1" height="90.8372" rx="19.5313" ry="19.5313" style="stroke:#2C3E50;stroke-width:3.125;" width="405.0486" x="17.1875" y="672.9362"/><text fill="#2C3E50" font-family="sans-serif" font-size="21.875" lengthAdjust="spacing" textLength="373.7986" x="32.8125" y="711.9455">Orientar quanto a h&#225;bitos saud&#225;veis</text><text fill="#2C3E50" font-family="sans-serif" font-size="21.875" lengthAdjust="spacing" textLength="286.3646" x="38.5" y="741.7391">e acompanhamento padr&#227;o</text><rect fill="#ECF0F1" height="61.0436" rx="19.5313" ry="19.5313" style="stroke:#2C3E50;stroke-width:3.125;" width="171.9494" x="133.7371" y="795.0234"/><text fill="#2C3E50" font-family="sans-serif" font-size="21.875" lengthAdjust="spacing" textLength="140.6994" x="149.3621" y="834.0327">-&gt; FIM_GERAL</text><rect fill="#ECF0F1" height="61.0436" rx="19.5313" ry="19.5313" style="stroke:#2C3E50;stroke-width:3.125;" width="284.7584" x="835.0443" y="527.4115"/><text fill="#2C3E50" font-family="sans-serif" font-size="21.875" lengthAdjust="spacing" textLength="253.5084" x="850.6693" y="566.4207">Agendar avalia&#231;&#227;o inicial</text><rect fill="#ECF0F1" height="120.6309" rx="19.5313" ry="19.5313" style="stroke:#2C3E50;stroke-width:3.125;" width="298.1021" x="828.3725" y="643.1426"/><text fill="#2C3E50" font-family="sans-serif" font-size="21.875" lengthAdjust="spacing" textLength="154.94" x="843.9975" y="682.1519">Consulta inicial</text><text fill="#2C3E50" font-family="sans-serif" font-size="21.875" lengthAdjust="spacing" textLength="266.8521" x="843.9975" y="711.9455">(Anamnese + Exame f&#237;sico</text><text fill="#2C3E50" font-family="sans-serif" font-size="21.875" lengthAdjust="spacing" textLength="248.1491" x="843.9975" y="741.7391">+ Estratifica&#231;&#227;o de risco)</text><rect fill="#ECF0F1" height="90.8372" rx="19.5313" ry="19.5313" style="stroke:#2C3E50;stroke-width:3.125;" width="456.4765" x="749.1853" y="795.0234"/><text fill="#2C3E50" font-family="sans-serif" font-size="21.875" lengthAdjust="spacing" textLength="243.3147" x="764.8103" y="834.0327">Classificar n&#237;vel de risco</text><text fill="#2C3E50" font-family="sans-serif" font-size="21.875" lengthAdjust="spacing" textLength="425.2265" x="764.8103" y="863.8263">(eleg&#237;vel ou n&#227;o para fluxo pr&#233;-bari&#225;trico)</text><polygon fill="#ECF0F1" points="878.8442,917.1107,1076.0028,917.1107,1094.7528,946.9043,1076.0028,976.6979,878.8442,976.6979,860.0942,946.9043,878.8442,917.1107" style="stroke:#2C3E50;stroke-width:3.125;"/><text fill="#2C3E50" font-family="sans-serif" font-size="21.875" lengthAdjust="spacing" textLength="197.1586" x="878.8442" y="940.495">"Eleg&#237;vel para fluxo</text><text fill="#2C3E50" font-family="sans-serif" font-size="21.875" lengthAdjust="spacing" textLength="159.2713" x="878.8442" y="970.2886">pr&#233;-bari&#225;trico?"</text><text fill="#000000" font-family="sans-serif" font-size="17.1875" lengthAdjust="spacing" textLength="47.1278" x="812.9664" y="941.8684">"N&#227;o"</text><text fill="#000000" font-family="sans-serif" font-size="17.1875" lengthAdjust="spacing" textLength="43.9653" x="1094.7528" y="941.8684">"Sim"</text><rect fill="#ECF0F1" height="90.8372" rx="19.5313" ry="19.5313" style="stroke:#2C3E50;stroke-width:3.125;" width="373.4393" x="482.8376" y="992.3229"/><text fill="#2C3E50" font-family="sans-serif" font-size="21.875" lengthAdjust="spacing" textLength="342.1893" x="498.4626" y="1031.3322">Plano terap&#234;utico individualizado</text><text fill="#2C3E50" font-family="sans-serif" font-size="21.875" lengthAdjust="spacing" textLength="177.8649" x="498.4626" y="1061.1258">(com foco cl&#237;nico)</text><rect fill="#ECF0F1" height="120.6309" rx="19.5313" ry="19.5313" style="stroke:#2C3E50;stroke-width:3.125;" width="400.8924" x="469.1111" y="1137.8477"/><text fill="#2C3E50" font-family="sans-serif" font-size="21.875" lengthAdjust="spacing" textLength="369.6424" x="484.7361" y="1176.8569">Acompanhamento multiprofissional</text><text fill="#2C3E50" font-family="sans-serif" font-size="21.875" lengthAdjust="spacing" textLength="216.0367" x="484.7361" y="1206.6506">(Nutri&#231;&#227;o, Psicologia,</text><text fill="#2C3E50" font-family="sans-serif" font-size="21.875" lengthAdjust="spacing" textLength="244.649" x="484.7361" y="1236.4442">Educa&#231;&#227;o F&#237;sica, Cl&#237;nica)</text><rect fill="#ECF0F1" height="61.0436" rx="19.5313" ry="19.5313" style="stroke:#2C3E50;stroke-width:3.125;" width="197.8712" x="570.6217" y="1313.166"/><text fill="#2C3E50" font-family="sans-serif" font-size="21.875" lengthAdjust="spacing" textLength="166.6212" x="586.2467" y="1352.1753">-&gt; SEGUIMENTO</text><rect fill="#ECF0F1" height="61.0436" rx="19.5313" ry="19.5313" style="stroke:#2C3E50;stroke-width:3.125;" width="545.3324" x="1012.6235" y="992.3229"/><text fill="#2C3E50" font-family="sans-serif" font-size="21.875" lengthAdjust="spacing" textLength="514.0824" x="1028.2485" y="1031.3322">Encaminhar para avalia&#231;&#227;o cir&#250;rgica especializada</text><rect fill="#ECF0F1" height="90.8372" rx="19.5313" ry="19.5313" style="stroke:#2C3E50;stroke-width:3.125;" width="308.3614" x="1131.109" y="1108.054"/><text fill="#2C3E50" font-family="sans-serif" font-size="21.875" lengthAdjust="spacing" textLength="192.2149" x="1146.734" y="1147.0633">Avalia&#231;&#227;o cir&#250;rgica</text><text fill="#2C3E50" font-family="sans-serif" font-size="21.875" lengthAdjust="spacing" textLength="277.1114" x="1146.734" y="1176.8569">+ Exames complementares</text><rect fill="#ECF0F1" height="90.8372" rx="19.5313" ry="19.5313" style="stroke:#2C3E50;stroke-width:3.125;" width="363.2237" x="1103.6779" y="1253.5788"/><text fill="#2C3E50" font-family="sans-serif" font-size="21.875" lengthAdjust="spacing" textLength="185.0618" x="1119.3029" y="1292.5881">Retorno para UAC</text><text fill="#2C3E50" font-family="sans-serif" font-size="21.875" lengthAdjust="spacing" textLength="331.9737" x="1119.3029" y="1322.3817">com parecer da equipe cir&#250;rgica</text><polygon fill="#ECF0F1" points="1112.7732,1399.1035,1457.8063,1399.1035,1476.5563,1417.8535,1457.8063,1436.6035,1112.7732,1436.6035,1094.0232,1417.8535,1112.7732,1399.1035" style="stroke:#2C3E50;stroke-width:3.125;"/><text fill="#2C3E50" font-family="sans-serif" font-size="21.875" lengthAdjust="spacing" textLength="345.033" x="1112.7732" y="1426.341">"Indica&#231;&#227;o cir&#250;rgica confirmada?"</text><text fill="#000000" font-family="sans-serif" font-size="17.1875" lengthAdjust="spacing" textLength="47.1278" x="1046.8954" y="1412.8176">"N&#227;o"</text><text fill="#000000" font-family="sans-serif" font-size="17.1875" lengthAdjust="spacing" textLength="43.9653" x="1476.5563" y="1412.8176">"Sim"</text><rect fill="#ECF0F1" height="90.8372" rx="19.5313" ry="19.5313" style="stroke:#2C3E50;stroke-width:3.125;" width="323.0395" x="916.8785" y="1452.2285"/><text fill="#2C3E50" font-family="sans-serif" font-size="21.875" lengthAdjust="spacing" textLength="291.7895" x="932.5035" y="1491.2378">Manter cuidado longitudinal</text><text fill="#2C3E50" font-family="sans-serif" font-size="21.875" lengthAdjust="spacing" textLength="245.699" x="932.5035" y="1521.0314">na UAC com foco cl&#237;nico</text><rect fill="#ECF0F1" height="61.0436" rx="19.5313" ry="19.5313" style="stroke:#2C3E50;stroke-width:3.125;" width="197.8712" x="979.4626" y="1597.7533"/><text fill="#2C3E50" font-family="sans-serif" font-size="21.875" lengthAdjust="spacing" textLength="166.6212" x="995.0876" y="1636.7625">-&gt; SEGUIMENTO</text><rect fill="#ECF0F1" height="120.6309" rx="19.5313" ry="19.5313" style="stroke:#2C3E50;stroke-width:3.125;" width="432.2611" x="1276.0507" y="1452.2285"/><text fill="#2C3E50" font-family="sans-serif" font-size="21.875" lengthAdjust="spacing" textLength="401.0111" x="1291.6757" y="1491.2378">Prepara&#231;&#227;o pr&#233;-operat&#243;ria estruturada</text><text fill="#2C3E50" font-family="sans-serif" font-size="21.875" lengthAdjust="spacing" textLength="276.3239" x="1291.6757" y="1521.0314">(Educa&#231;&#227;o, metas, exames,</text><text fill="#2C3E50" font-family="sans-serif" font-size="21.875" lengthAdjust="spacing" textLength="189.2836" x="1291.6757" y="1550.825">adequa&#231;&#227;o cl&#237;nica)</text><rect fill="#ECF0F1" height="90.8372" rx="19.5313" ry="19.5313" style="stroke:#2C3E50;stroke-width:3.125;" width="250.7211" x="1366.8207" y="1627.5469"/><text fill="#2C3E50" font-family="sans-serif" font-size="21.875" lengthAdjust="spacing" textLength="218.1585" x="1382.4457" y="1666.5562">Registro no painel de</text><text fill="#2C3E50" font-family="sans-serif" font-size="21.875" lengthAdjust="spacing" textLength="219.4711" x="1382.4457" y="1696.3498">status pr&#233;-operat&#243;rio</text><rect fill="#ECF0F1" height="61.0436" rx="19.5313" ry="19.5313" style="stroke:#2C3E50;stroke-width:3.125;" width="197.8712" x="1393.2457" y="1749.6341"/><text fill="#2C3E50" font-family="sans-serif" font-size="21.875" lengthAdjust="spacing" textLength="166.6212" x="1408.8707" y="1788.6434">-&gt; SEGUIMENTO</text><polygon fill="#ECF0F1" points="1285.2897,1820.0527,1304.0397,1838.8027,1285.2897,1857.5527,1266.5397,1838.8027,1285.2897,1820.0527" style="stroke:#2C3E50;stroke-width:3.125;"/><polygon fill="#ECF0F1" points="977.4235,1866.9277,996.1735,1885.6777,977.4235,1904.4277,958.6735,1885.6777,977.4235,1866.9277" style="stroke:#2C3E50;stroke-width:3.125;"/><polygon fill="#ECF0F1" points="598.5677,1913.8027,617.3177,1932.5527,598.5677,1951.3027,579.8177,1932.5527,598.5677,1913.8027" style="stroke:#2C3E50;stroke-width:3.125;"/><rect fill="#ECF0F1" height="61.0436" rx="19.5313" ry="19.5313" style="stroke:#2C3E50;stroke-width:3.125;" width="349.7269" x="423.7042" y="1982.5527"/><text fill="#2C3E50" font-family="sans-serif" font-size="21.875" lengthAdjust="spacing" textLength="318.4769" x="439.3292" y="2021.562">Grupos de Educa&#231;&#227;o em Sa&#250;de</text><rect fill="#ECF0F1" height="90.8372" rx="19.5313" ry="19.5313" style="stroke:#2C3E50;stroke-width:3.125;" width="429.7016" x="383.7169" y="2074.8464"/><text fill="#2C3E50" font-family="sans-serif" font-size="21.875" lengthAdjust="spacing" textLength="398.4516" x="399.3419" y="2113.8556">Acompanhamento peri&#243;dico individual</text><text fill="#2C3E50" font-family="sans-serif" font-size="21.875" lengthAdjust="spacing" textLength="350.1299" x="399.3419" y="2143.6493">e em grupo (pr&#233; e p&#243;s-operat&#243;rio)</text><rect fill="#ECF0F1" height="120.6309" rx="19.5313" ry="19.5313" style="stroke:#2C3E50;stroke-width:3.125;" width="516.72" x="340.2077" y="2196.9336"/><text fill="#2C3E50" font-family="sans-serif" font-size="21.875" lengthAdjust="spacing" textLength="454.8451" x="355.8327" y="2235.9429">Registro dos dados no painel de indicadores</text><text fill="#2C3E50" font-family="sans-serif" font-size="21.875" lengthAdjust="spacing" textLength="485.47" x="355.8327" y="2265.7365">(IMC, ades&#227;o, elegibilidade, encaminhamentos,</text><text fill="#2C3E50" font-family="sans-serif" font-size="21.875" lengthAdjust="spacing" textLength="421.5516" x="355.8327" y="2295.5301">indica&#231;&#227;o cir&#250;rgica e cirurgias realizadas)</text><rect fill="#ECF0F1" height="61.0436" rx="19.5313" ry="19.5313" style="stroke:#2C3E50;stroke-width:3.125;" width="429.3516" x="383.8919" y="2348.8145"/><text fill="#2C3E50" font-family="sans-serif" font-size="21.875" lengthAdjust="spacing" textLength="398.1016" x="399.5169" y="2387.8237">Revis&#227;o semanal do painel pela equipe</text><polygon fill="#ECF0F1" points="449.1292,2441.1081,748.0061,2441.1081,766.7561,2470.9017,748.0061,2500.6953,449.1292,2500.6953,430.3792,2470.9017,449.1292,2441.1081" style="stroke:#2C3E50;stroke-width:3.125;"/><text fill="#2C3E50" font-family="sans-serif" font-size="21.875" lengthAdjust="spacing" textLength="298.877" x="449.1292" y="2464.4924">"Ajustes necess&#225;rios no fluxo</text><text fill="#2C3E50" font-family="sans-serif" font-size="21.875" lengthAdjust="spacing" textLength="211.7929" x="449.1292" y="2494.286">cl&#237;nico ou cir&#250;rgico?"</text><text fill="#000000" font-family="sans-serif" font-size="17.1875" lengthAdjust="spacing" textLength="47.1278" x="383.2514" y="2465.8658">"N&#227;o"</text><text fill="#000000" font-family="sans-serif" font-size="17.1875" lengthAdjust="spacing" textLength="43.9653" x="766.7561" y="2465.8658">"Sim"</text><rect fill="#ECF0F1" height="61.0436" rx="19.5313" ry="19.5313" style="stroke:#2C3E50;stroke-width:3.125;" width="245.3179" x="292.0952" y="2516.3203"/><text fill="#2C3E50" font-family="sans-serif" font-size="21.875" lengthAdjust="spacing" textLength="214.0679" x="307.7202" y="2555.3296">Manter fluxo vigente</text><rect fill="#ECF0F1" height="120.6309" rx="19.5313" ry="19.5313" style="stroke:#2C3E50;stroke-width:3.125;" width="363.005" x="600.8786" y="2516.3203"/><text fill="#2C3E50" font-family="sans-serif" font-size="21.875" lengthAdjust="spacing" textLength="195.9774" x="616.5036" y="2555.3296">Revisar protocolos,</text><text fill="#2C3E50" font-family="sans-serif" font-size="21.875" lengthAdjust="spacing" textLength="262.4334" x="616.5036" y="2585.1232">linhas pr&#233;/p&#243;s-bari&#225;tricas</text><text fill="#2C3E50" font-family="sans-serif" font-size="21.875" lengthAdjust="spacing" textLength="326.0675" x="622.1911" y="2614.9168">e redistribuir responsabilidades</text><polygon fill="#ECF0F1" points="598.5677,2646.3262,617.3177,2665.0762,598.5677,2683.8262,579.8177,2665.0762,598.5677,2646.3262" style="stroke:#2C3E50;stroke-width:3.125;"/><rect fill="#ECF0F1" height="90.8372" rx="19.5313" ry="19.5313" style="stroke:#2C3E50;stroke-width:3.125;" width="426.9235" x="385.1059" y="2715.0762"/><text fill="#2C3E50" font-family="sans-serif" font-size="21.875" lengthAdjust="spacing" textLength="319.3301" x="400.7309" y="2754.0855">Relat&#243;rio mensal para a gest&#227;o</text><text fill="#2C3E50" font-family="sans-serif" font-size="21.875" lengthAdjust="spacing" textLength="395.6735" x="400.7309" y="2783.8791">(incluindo taxa de convers&#227;o cir&#250;rgica)</text><ellipse cx="598.5677" cy="2854.3509" fill="none" rx="17.1875" ry="17.1875" style="stroke:#222222;stroke-width:1.5625;"/><ellipse cx="598.5677" cy="2854.3509" fill="#222222" rx="9.375" ry="9.375" style="stroke:#222222;stroke-width:1.5625;"/><line style="stroke:#2C3E50;stroke-width:3.125;" x1="598.5677" x2="598.5677" y1="109.4811" y2="140.7311"/><polygon fill="#2C3E50" points="592.3177,125.1061,598.5677,140.7311,604.8177,125.1061,598.5677,131.3561" style="stroke:#2C3E50;stroke-width:1.5625;"/><line style="stroke:#2C3E50;stroke-width:3.125;" x1="598.5677" x2="598.5677" y1="291.1556" y2="322.4056"/><polygon fill="#2C3E50" points="592.3177,306.7806,598.5677,322.4056,604.8177,306.7806,598.5677,313.0306" style="stroke:#2C3E50;stroke-width:1.5625;"/><line style="stroke:#2C3E50;stroke-width:3.125;" x1="219.7118" x2="219.7118" y1="618.2487" y2="672.9362"/><polygon fill="#2C3E50" points="213.4618,657.3112,219.7118,672.9362,225.9618,657.3112,219.7118,663.5612" style="stroke:#2C3E50;stroke-width:1.5625;"/><line style="stroke:#2C3E50;stroke-width:3.125;" x1="219.7118" x2="219.7118" y1="763.7734" y2="795.0234"/><polygon fill="#2C3E50" points="213.4618,779.3984,219.7118,795.0234,225.9618,779.3984,219.7118,785.6484" style="stroke:#2C3E50;stroke-width:1.5625;"/><line style="stroke:#2C3E50;stroke-width:3.125;" x1="977.4235" x2="977.4235" y1="588.4551" y2="643.1426"/><polygon fill="#2C3E50" points="971.1735,627.5176,977.4235,643.1426,983.6735,627.5176,977.4235,633.7676" style="stroke:#2C3E50;stroke-width:1.5625;"/><line style="stroke:#2C3E50;stroke-width:3.125;" x1="977.4235" x2="977.4235" y1="763.7734" y2="795.0234"/><polygon fill="#2C3E50" points="971.1735,779.3984,977.4235,795.0234,983.6735,779.3984,977.4235,785.6484" style="stroke:#2C3E50;stroke-width:1.5625;"/><line style="stroke:#2C3E50;stroke-width:3.125;" x1="669.5573" x2="669.5573" y1="1083.1602" y2="1137.8477"/><polygon fill="#2C3E50" points="663.3073,1122.2227,669.5573,1137.8477,675.8073,1122.2227,669.5573,1128.4727" style="stroke:#2C3E50;stroke-width:1.5625;"/><line style="stroke:#2C3E50;stroke-width:3.125;" x1="669.5573" x2="669.5573" y1="1258.4785" y2="1313.166"/><polygon fill="#2C3E50" points="663.3073,1297.541,669.5573,1313.166,675.8073,1297.541,669.5573,1303.791" style="stroke:#2C3E50;stroke-width:1.5625;"/><line style="stroke:#2C3E50;stroke-width:3.125;" x1="1285.2897" x2="1285.2897" y1="1053.3665" y2="1108.054"/><polygon fill="#2C3E50" points="1279.0397,1092.429,1285.2897,1108.054,1291.5397,1092.429,1285.2897,1098.679" style="stroke:#2C3E50;stroke-width:1.5625;"/><line style="stroke:#2C3E50;stroke-width:3.125;" x1="1285.2897" x2="1285.2897" y1="1198.8913" y2="1253.5788"/><polygon fill="#2C3E50" points="1279.0397,1237.9538,1285.2897,1253.5788,1291.5397,1237.9538,1285.2897,1244.2038" style="stroke:#2C3E50;stroke-width:1.5625;"/><line style="stroke:#2C3E50;stroke-width:3.125;" x1="1078.3982" x2="1078.3982" y1="1543.0658" y2="1597.7533"/><polygon fill="#2C3E50" points="1072.1482,1582.1283,1078.3982,1597.7533,1084.6482,1582.1283,1078.3982,1588.3783" style="stroke:#2C3E50;stroke-width:1.5625;"/><line style="stroke:#2C3E50;stroke-width:3.125;" x1="1492.1813" x2="1492.1813" y1="1572.8594" y2="1627.5469"/><polygon fill="#2C3E50" points="1485.9313,1611.9219,1492.1813,1627.5469,1498.4313,1611.9219,1492.1813,1618.1719" style="stroke:#2C3E50;stroke-width:1.5625;"/><line style="stroke:#2C3E50;stroke-width:3.125;" x1="1492.1813" x2="1492.1813" y1="1718.3841" y2="1749.6341"/><polygon fill="#2C3E50" points="1485.9313,1734.0091,1492.1813,1749.6341,1498.4313,1734.0091,1492.1813,1740.2591" style="stroke:#2C3E50;stroke-width:1.5625;"/><line style="stroke:#2C3E50;stroke-width:3.125;" x1="1094.0232" x2="1078.3982" y1="1417.8535" y2="1417.8535"/><line style="stroke:#2C3E50;stroke-width:3.125;" x1="1078.3982" x2="1078.3982" y1="1417.8535" y2="1452.2285"/><polygon fill="#2C3E50" points="1072.1482,1436.6035,1078.3982,1452.2285,1084.6482,1436.6035,1078.3982,1442.8535" style="stroke:#2C3E50;stroke-width:1.5625;"/><line style="stroke:#2C3E50;stroke-width:3.125;" x1="1476.5563" x2="1492.1813" y1="1417.8535" y2="1417.8535"/><line style="stroke:#2C3E50;stroke-width:3.125;" x1="1492.1813" x2="1492.1813" y1="1417.8535" y2="1452.2285"/><polygon fill="#2C3E50" points="1485.9313,1436.6035,1492.1813,1452.2285,1498.4313,1436.6035,1492.1813,1442.8535" style="stroke:#2C3E50;stroke-width:1.5625;"/><line style="stroke:#2C3E50;stroke-width:3.125;" x1="1078.3982" x2="1078.3982" y1="1658.7969" y2="1838.8027"/><line style="stroke:#2C3E50;stroke-width:3.125;" x1="1078.3982" x2="1266.5397" y1="1838.8027" y2="1838.8027"/><polygon fill="#2C3E50" points="1250.9147,1832.5527,1266.5397,1838.8027,1250.9147,1845.0527,1257.1647,1838.8027" style="stroke:#2C3E50;stroke-width:1.5625;"/><line style="stroke:#2C3E50;stroke-width:3.125;" x1="1492.1813" x2="1492.1813" y1="1810.6777" y2="1838.8027"/><line style="stroke:#2C3E50;stroke-width:3.125;" x1="1492.1813" x2="1304.0397" y1="1838.8027" y2="1838.8027"/><polygon fill="#2C3E50" points="1319.6647,1832.5527,1304.0397,1838.8027,1319.6647,1845.0527,1313.4147,1838.8027" style="stroke:#2C3E50;stroke-width:1.5625;"/><line style="stroke:#2C3E50;stroke-width:3.125;" x1="1285.2897" x2="1285.2897" y1="1344.416" y2="1399.1035"/><polygon fill="#2C3E50" points="1279.0397,1383.4785,1285.2897,1399.1035,1291.5397,1383.4785,1285.2897,1389.7285" style="stroke:#2C3E50;stroke-width:1.5625;"/><line style="stroke:#2C3E50;stroke-width:3.125;" x1="860.0942" x2="669.5573" y1="946.9043" y2="946.9043"/><line style="stroke:#2C3E50;stroke-width:3.125;" x1="669.5573" x2="669.5573" y1="946.9043" y2="992.3229"/><polygon fill="#2C3E50" points="663.3073,976.6979,669.5573,992.3229,675.8073,976.6979,669.5573,982.9479" style="stroke:#2C3E50;stroke-width:1.5625;"/><line style="stroke:#2C3E50;stroke-width:3.125;" x1="1094.7528" x2="1285.2897" y1="946.9043" y2="946.9043"/><line style="stroke:#2C3E50;stroke-width:3.125;" x1="1285.2897" x2="1285.2897" y1="946.9043" y2="992.3229"/><polygon fill="#2C3E50" points="1279.0397,976.6979,1285.2897,992.3229,1291.5397,976.6979,1285.2897,982.9479" style="stroke:#2C3E50;stroke-width:1.5625;"/><line style="stroke:#2C3E50;stroke-width:3.125;" x1="669.5573" x2="669.5573" y1="1374.2096" y2="1885.6777"/><line style="stroke:#2C3E50;stroke-width:3.125;" x1="669.5573" x2="958.6735" y1="1885.6777" y2="1885.6777"/><polygon fill="#2C3E50" points="943.0485,1879.4277,958.6735,1885.6777,943.0485,1891.9277,949.2985,1885.6777" style="stroke:#2C3E50;stroke-width:1.5625;"/><line style="stroke:#2C3E50;stroke-width:3.125;" x1="1285.2897" x2="1285.2897" y1="1857.5527" y2="1885.6777"/><line style="stroke:#2C3E50;stroke-width:3.125;" x1="1285.2897" x2="996.1735" y1="1885.6777" y2="1885.6777"/><polygon fill="#2C3E50" points="1011.7985,1879.4277,996.1735,1885.6777,1011.7985,1891.9277,1005.5485,1885.6777" style="stroke:#2C3E50;stroke-width:1.5625;"/><line style="stroke:#2C3E50;stroke-width:3.125;" x1="977.4235" x2="977.4235" y1="885.8607" y2="917.1107"/><polygon fill="#2C3E50" points="971.1735,901.4857,977.4235,917.1107,983.6735,901.4857,977.4235,907.7357" style="stroke:#2C3E50;stroke-width:1.5625;"/><line style="stroke:#2C3E50;stroke-width:3.125;" x1="389.9106" x2="219.7118" y1="493.0365" y2="493.0365"/><line style="stroke:#2C3E50;stroke-width:3.125;" x1="219.7118" x2="219.7118" y1="493.0365" y2="527.4115"/><polygon fill="#2C3E50" points="213.4618,511.7865,219.7118,527.4115,225.9618,511.7865,219.7118,518.0365" style="stroke:#2C3E50;stroke-width:1.5625;"/><line style="stroke:#2C3E50;stroke-width:3.125;" x1="807.2247" x2="977.4235" y1="493.0365" y2="493.0365"/><line style="stroke:#2C3E50;stroke-width:3.125;" x1="977.4235" x2="977.4235" y1="493.0365" y2="527.4115"/><polygon fill="#2C3E50" points="971.1735,511.7865,977.4235,527.4115,983.6735,511.7865,977.4235,518.0365" style="stroke:#2C3E50;stroke-width:1.5625;"/><line style="stroke:#2C3E50;stroke-width:3.125;" x1="219.7118" x2="219.7118" y1="856.0671" y2="1932.5527"/><line style="stroke:#2C3E50;stroke-width:3.125;" x1="219.7118" x2="579.8177" y1="1932.5527" y2="1932.5527"/><polygon fill="#2C3E50" points="564.1927,1926.3027,579.8177,1932.5527,564.1927,1938.8027,570.4427,1932.5527" style="stroke:#2C3E50;stroke-width:1.5625;"/><line style="stroke:#2C3E50;stroke-width:3.125;" x1="977.4235" x2="977.4235" y1="1904.4277" y2="1932.5527"/><line style="stroke:#2C3E50;stroke-width:3.125;" x1="977.4235" x2="617.3177" y1="1932.5527" y2="1932.5527"/><polygon fill="#2C3E50" points="632.9427,1926.3027,617.3177,1932.5527,632.9427,1938.8027,626.6927,1932.5527" style="stroke:#2C3E50;stroke-width:1.5625;"/><line style="stroke:#2C3E50;stroke-width:3.125;" x1="598.5677" x2="598.5677" y1="443.0365" y2="474.2865"/><polygon fill="#2C3E50" points="592.3177,458.6615,598.5677,474.2865,604.8177,458.6615,598.5677,464.9115" style="stroke:#2C3E50;stroke-width:1.5625;"/><line style="stroke:#2C3E50;stroke-width:3.125;" x1="598.5677" x2="598.5677" y1="1951.3027" y2="1982.5527"/><polygon fill="#2C3E50" points="592.3177,1966.9277,598.5677,1982.5527,604.8177,1966.9277,598.5677,1973.1777" style="stroke:#2C3E50;stroke-width:1.5625;"/><line style="stroke:#2C3E50;stroke-width:3.125;" x1="598.5677" x2="598.5677" y1="2043.5964" y2="2074.8464"/><polygon fill="#2C3E50" points="592.3177,2059.2214,598.5677,2074.8464,604.8177,2059.2214,598.5677,2065.4714" style="stroke:#2C3E50;stroke-width:1.5625;"/><line style="stroke:#2C3E50;stroke-width:3.125;" x1="598.5677" x2="598.5677" y1="2165.6836" y2="2196.9336"/><polygon fill="#2C3E50" points="592.3177,2181.3086,598.5677,2196.9336,604.8177,2181.3086,598.5677,2187.5586" style="stroke:#2C3E50;stroke-width:1.5625;"/><line style="stroke:#2C3E50;stroke-width:3.125;" x1="598.5677" x2="598.5677" y1="2317.5645" y2="2348.8145"/><polygon fill="#2C3E50" points="592.3177,2333.1895,598.5677,2348.8145,604.8177,2333.1895,598.5677,2339.4395" style="stroke:#2C3E50;stroke-width:1.5625;"/><line style="stroke:#2C3E50;stroke-width:3.125;" x1="430.3792" x2="414.7542" y1="2470.9017" y2="2470.9017"/><line style="stroke:#2C3E50;stroke-width:3.125;" x1="414.7542" x2="414.7542" y1="2470.9017" y2="2516.3203"/><polygon fill="#2C3E50" points="408.5042,2500.6953,414.7542,2516.3203,421.0042,2500.6953,414.7542,2506.9453" style="stroke:#2C3E50;stroke-width:1.5625;"/><line style="stroke:#2C3E50;stroke-width:3.125;" x1="766.7561" x2="782.3811" y1="2470.9017" y2="2470.9017"/><line style="stroke:#2C3E50;stroke-width:3.125;" x1="782.3811" x2="782.3811" y1="2470.9017" y2="2516.3203"/><polygon fill="#2C3E50" points="776.1311,2500.6953,782.3811,2516.3203,788.6311,2500.6953,782.3811,2506.9453" style="stroke:#2C3E50;stroke-width:1.5625;"/><line style="stroke:#2C3E50;stroke-width:3.125;" x1="414.7542" x2="414.7542" y1="2577.3639" y2="2665.0762"/><line style="stroke:#2C3E50;stroke-width:3.125;" x1="414.7542" x2="579.8177" y1="2665.0762" y2="2665.0762"/><polygon fill="#2C3E50" points="564.1927,2658.8262,579.8177,2665.0762,564.1927,2671.3262,570.4427,2665.0762" style="stroke:#2C3E50;stroke-width:1.5625;"/><line style="stroke:#2C3E50;stroke-width:3.125;" x1="782.3811" x2="782.3811" y1="2636.9512" y2="2665.0762"/><line style="stroke:#2C3E50;stroke-width:3.125;" x1="782.3811" x2="617.3177" y1="2665.0762" y2="2665.0762"/><polygon fill="#2C3E50" points="632.9427,2658.8262,617.3177,2665.0762,632.9427,2671.3262,626.6927,2665.0762" style="stroke:#2C3E50;stroke-width:1.5625;"/><line style="stroke:#2C3E50;stroke-width:3.125;" x1="598.5677" x2="598.5677" y1="2409.8581" y2="2441.1081"/><polygon fill="#2C3E50" points="592.3177,2425.4831,598.5677,2441.1081,604.8177,2425.4831,598.5677,2431.7331" style="stroke:#2C3E50;stroke-width:1.5625;"/><line style="stroke:#2C3E50;stroke-width:3.125;" x1="598.5677" x2="598.5677" y1="2683.8262" y2="2715.0762"/><polygon fill="#2C3E50" points="592.3177,2699.4512,598.5677,2715.0762,604.8177,2699.4512,598.5677,2705.7012" style="stroke:#2C3E50;stroke-width:1.5625;"/><line style="stroke:#2C3E50;stroke-width:3.125;" x1="598.5677" x2="598.5677" y1="2805.9134" y2="2837.1634"/><polygon fill="#2C3E50" points="592.3177,2821.5384,598.5677,2837.1634,604.8177,2821.5384,598.5677,2827.7884" style="stroke:#2C3E50;stroke-width:1.5625;"/><!--SRC=[XLNBRXj74BppAnhAHK8eHFBZ8W49688K15WFIBPF18BXxf1gQtTcFJFBAFw3V8PW184DwAIRh_id-P9KpywA3p6n3f9sjwUxkhgwnj-ogPHJ9KrLTZjtjZRvq1RMqG_Z-DFpJn5vnNJu-c3bpS0v-tiAVp5yELh_c0LUSFZZL-joxRuRjLb-D1mVZ0-tH8wj2T_B9Z7N_4dJuQjDk6zlEBirsdjwyPzWLsDwWKEXQLpKTtQEK4NxTAQC_c0fLtGnrPvpbMioYjuDXhGxB9e7mvabJKDspJStnyDUh-U3Sg7NEnggAgZcx-Qp9OMQYd2sKXbh4xIdp9PakvmJKrgWKQYZ2BKNUBFxXf79oobzfqhj-rGit_WAuVs9kS6hvj49Z2pXsJj6yVVQyOmpvIXp79elZcqyo2OhQY-OaAJGSvvoaI3idfuDwPy__wANh-b7mMVTD7xo4sDhwhw-Ef02FAFTdSlKJSpKF2nqGK8oMQfSI-4lEtiKRhH1y3cAxkprY8wkKDO71smT7HEZIt8sCBYTex7YME8kd7n4sCTQcG0MwQQvdt909rxLUNE_q0niw4G1RQNC3MYIm4hb3jKaoVx-ppG-FVljP7GrUDFJXTU0SirbYsGmroP70RLG1QTPCJZaX61eZQ-BeBgN86bWL0d1Q50qah7Gh7dmO7rYy4Aw2f7tDXS8T-pZI2HReRnFKp4jNLq04Yyv1Db6JaSkPo97yDbysPygnyrzS6d6H748etNkO_p4R1xODWX0kYoKiHH0UTLyhOF8Y4sE1SbhCF99vO9Cf3gpwmgBfmVhj9UWYZ7v6QDDQo9TvpNAHpBwT2ay5NRE8jnHNdSiZIE3gazferJABxEx7fsyEpqRdR-zmAkDyG71o6IgP21mRVUhWyowfLHnNMH-qf7gm6yDZMECwoORK1MwZ1BKFfswqi4wasO36vWOOGTFEjDEV49_hBdIAndZfDAiJi5jzXnUPisCNGbisyU4kZ0YJ8coMZRIKc7Dd4ETSsGvETApEHsdqy-8t4AbYC5fQQk55mLanMMYlmY7mTMX5fF2N9VZwrEfuKhzpgKc1fQ1ZKrThezqkVsM8ejiuXPC39mjr7wpxF-s039dlUvl-xjNg2aIhaGUdRYwQhrlHNAmcslLVClrSMzJnQZDpME-lWemA3apbroqAo3XEbNpw5UnHkDzQY-Neaf-hpOQSsPuxSHMnNBx91ORYLmpP3nsuex0X5dUhfyejnh_ut9mEidS9pWBZdRlTQaW5i3gm5IwwEJQ6VhWG-tbSZ9Gi_VDVRmr03-PIgShSQYdybkjfTDhwruBdelB7p_ptuXETXVURyKRfCb2McwLy5EaU6bZghLxftFXcASrEppu2ZQjEjwmgKaBI5-aqK2Z24aMANSCRitFuctnFWIjC45r5wzeBED2ExzEiN3PIcjvcVXWgty1]--></g></svg>